<svg version="1.1" id="Layer_1" xmlns="http://www.w3.org/2000/svg" xmlns:xlink="http://www.w3.org/1999/xlink" x="0px" y="0px" viewBox="0 0 720.2 507.7" style="enable-background:new 0 0 720.2 507.7;" xml:space="preserve">
<g>
	<g>
		<g>
			<path class="pra-fill" d="M115,505.7H77.6c-1.5,0-2.7-1.1-2.8-2.6l-2.5-23.8H57.9l-2.2,23.8c-0.1,1.5-1.4,2.6-2.8,2.6H15.3
				c-0.8,0-1.6-0.4-2.1-1c-0.5-0.6-0.8-1.4-0.7-2.2l19.8-175.1c0.2-1.5,1.4-2.5,2.8-2.5h60.6c1.5,0,2.7,1.1,2.8,2.5l19.3,175.2
				c0.1,0.8-0.2,1.6-0.7,2.2C116.6,505.4,115.8,505.7,115,505.7z M80.2,500h31.6L93.1,330.5H37.6L18.5,500h31.8l2.2-23.8
				c0.1-1.5,1.4-2.6,2.8-2.6h19.6c1.5,0,2.7,1.1,2.8,2.6L80.2,500z M71.9,447.4H58c-0.8,0-1.5-0.3-2.1-0.9c-0.5-0.6-0.8-1.4-0.8-2.1
				l5.2-84c0.1-1.5,1.3-2.7,2.9-2.7h3.5c1.5,0,2.8,1.2,2.9,2.7l5.2,84c0.1,0.8-0.2,1.6-0.8,2.1C73.4,447.1,72.7,447.4,71.9,447.4z
				 M61.1,441.7h7.8L65,378.6L61.1,441.7z"></path>
			<path class="pra-fill" d="M252.1,505.7h-46.4c-1.4,0-2.7-1.1-2.8-2.5l-6.8-59l-6.5,59c-0.2,1.5-1.4,2.5-2.9,2.5h-47.2
				c-1.4,0-2.7-1.1-2.8-2.5L116,328c-0.1-0.8,0.2-1.6,0.7-2.2c0.5-0.6,1.3-1,2.1-1h37.8c1.5,0,2.7,1.1,2.9,2.6l7.8,81.3l8-81.3
				c0.1-1.5,1.4-2.6,2.9-2.6h36.1c1.5,0,2.7,1.1,2.9,2.6l7.5,80l7.5-80c0.1-1.5,1.4-2.6,2.9-2.6h38.3c0.8,0,1.6,0.4,2.1,1
				s0.8,1.4,0.7,2.2L255,503.2C254.8,504.6,253.6,505.7,252.1,505.7z M208.3,500h41.3L270,330.5h-32.4l-10.1,107.9
				c-0.1,1.5-1.4,2.6-2.9,2.6c-1.5,0-2.7-1.1-2.9-2.6l-10.1-107.9h-30.9l-10.6,107.9c-0.1,1.5-1.4,2.6-2.9,2.6l0,0
				c-1.5,0-2.7-1.1-2.9-2.6l-10.4-107.9h-32L142.2,500h42.1l9-81.9c0.2-1.5,1.4-2.5,2.8-2.5h0c1.4,0,2.7,1.1,2.8,2.5L208.3,500z"></path>
			<path class="pra-fill" d="M376.5,505.7h-37.4c-1.5,0-2.7-1.1-2.9-2.6l-2.5-23.8h-14.4l-2.2,23.8c-0.1,1.5-1.4,2.6-2.9,2.6h-37.6
				c-0.8,0-1.6-0.4-2.1-1s-0.8-1.4-0.7-2.2l19.8-175.2c0.2-1.5,1.4-2.5,2.8-2.5h60.6c1.5,0,2.7,1.1,2.8,2.5l19.4,175.2
				c0.1,0.8-0.2,1.6-0.7,2.2C378.1,505.4,377.3,505.7,376.5,505.7z M341.7,500h31.6l-18.7-169.4h-55.5L279.9,500h31.8l2.2-23.8
				c0.1-1.5,1.4-2.6,2.9-2.6h19.6c1.5,0,2.7,1.1,2.9,2.6L341.7,500z M333.4,447.4h-13.9c-0.8,0-1.5-0.3-2.1-0.9
				c-0.5-0.6-0.8-1.4-0.8-2.1l5.2-84c0.1-1.5,1.3-2.7,2.9-2.7h3.5c1.5,0,2.8,1.2,2.9,2.7l5.2,84c0,0.8-0.2,1.6-0.8,2.1
				C334.9,447.1,334.2,447.4,333.4,447.4z M322.6,441.7h7.8l-3.9-63.1L322.6,441.7z"></path>
			<path class="pra-fill" d="M479.9,505.7h-37.8c-1.6,0-2.9-1.3-2.9-2.9v-68.3c0-2.4-0.2-4.3-0.7-5.6c-0.3-0.9-0.8-1.4-1.6-1.8
				c-1.2-0.6-2.4-0.9-3.4-1c-0.8-0.1-1.9-0.1-3.2-0.2v76.8c0,1.6-1.3,2.9-2.9,2.9h-39.1c-1.6,0-2.9-1.3-2.9-2.9V327.7
				c0-1.6,1.3-2.9,2.9-2.9h59.4c6.4,0,12,0.9,16.6,2.7c4.7,1.8,8.5,4.2,11.3,7.2c2.8,3,5,6.9,6.5,11.7c1.5,4.6,2.5,9.3,2.9,13.9
				c0.5,4.5,0.7,10,0.7,16.4c0,3.3-0.1,6.1-0.2,8.2c-0.1,2.3-0.5,5-1.3,8.4c-0.8,3.5-1.9,6.4-3.2,8.8c-1.4,2.4-3.5,4.8-6.3,7
				c-1,0.8-2,1.5-3.1,2.2c1,0.5,1.9,1.1,2.8,1.8c2.8,2.1,4.8,4.8,6,7.9c1.1,2.8,1.9,5.5,2.2,7.9c0.4,2.4,0.6,5.1,0.6,8
				c0,28.8-0.1,51-0.4,66C482.8,504.5,481.5,505.7,479.9,505.7z M445,500h32.1c0.3-14.9,0.4-36.1,0.4-63.1c0-2.6-0.2-5-0.5-7.1
				c-0.3-2-1-4.3-1.9-6.7c-0.8-2.2-2.2-3.9-4.1-5.4c-2-1.5-4.6-2.6-7.7-3.1c-1.3-0.2-2.3-1.3-2.3-2.6s0.8-2.5,2-2.9
				c3.2-1,6-2.4,8.2-4.2c2.2-1.8,3.9-3.7,5-5.5c1.1-1.9,2-4.2,2.6-7.1c0.7-3,1-5.5,1.1-7.5c0.1-2,0.2-4.7,0.2-7.9
				c0-6.2-0.2-11.5-0.6-15.8c-0.4-4.2-1.3-8.5-2.7-12.7c-1.3-4-3.1-7.2-5.2-9.6c-2.2-2.3-5.3-4.3-9.1-5.8c-4-1.5-8.9-2.3-14.6-2.3
				h-56.5V500h33.4v-76.9c0-1.6,1.3-2.9,2.9-2.9c3,0,5.2,0.1,6.7,0.2c1.7,0.2,3.5,0.7,5.2,1.5c2.2,1,3.8,2.8,4.6,5.1
				c0.7,1.9,1,4.4,1,7.4L445,500L445,500z M437.4,395.6h-9.7c-1.6,0-2.9-1.3-2.9-2.9v-32.7c0-1.6,1.3-2.9,2.9-2.9h2.1
				c7,0,11.7,1.2,14.3,3.8c2.6,2.6,3.9,7.6,3.9,15.7C448,389.3,444.4,395.6,437.4,395.6z M430.6,389.9h6.8c4,0,4.8-7.2,4.8-13.2
				c0-8.5-1.5-11-2.2-11.6c-0.8-0.8-3.1-2-9.5-2.1L430.6,389.9L430.6,389.9z"></path>
			<path class="pra-fill" d="M550,505.7h-52c-1.6,0-2.9-1.3-2.9-2.9V327.7c0-1.6,1.3-2.9,2.9-2.9h53.3c15.2,0,26.6,4,33.7,12
				c7.1,7.9,10.7,18.7,10.8,32.2l0.4,81.8c0,18.1-3.7,31.9-10.9,41C578,501,566.1,505.7,550,505.7z M500.8,500H550
				c14.3,0,24.7-4,30.9-11.8c6.4-8,9.7-20.6,9.7-37.4l-0.5-81.8c-0.1-12-3.2-21.6-9.3-28.4c-6-6.7-16-10.1-29.5-10.1h-50.5
				L500.8,500L500.8,500z M543.6,473.8c-0.8,0-1.8,0-3.1-0.1c-1.8-0.1-2.5-0.1-2.9-0.1c-0.8,0.2-1.7,0-2.4-0.5
				c-0.8-0.5-1.2-1.4-1.2-2.3V358.7c0-1.5,1.2-2.8,2.7-2.9c2.1-0.1,3.6-0.2,4.5-0.2c5.8,0,10.1,1.5,12.7,4.6c2.5,2.9,3.7,7.9,3.7,15
				v86.4C557.6,466.2,555.8,473.8,543.6,473.8z M537.8,473.6c0,0-0.1,0-0.1,0C537.7,473.6,537.8,473.6,537.8,473.6z M539.8,467.9
				c0.3,0,0.7,0,1.1,0.1c1.1,0.1,2,0.1,2.7,0.1c7.2,0,8.2-3.1,8.2-6.5v-86.4c0-7-1.3-10-2.3-11.3c-1.4-1.7-4.2-2.6-8.3-2.6
				c-0.3,0-0.7,0-1.4,0L539.8,467.9L539.8,467.9z"></path>
			<path class="pra-fill" d="M655.8,507.7c-18.7,0-32.3-4.5-40.5-13.2c-8.1-8.7-12.3-22.2-12.3-40v-17.1c0-1.6,1.3-2.9,2.9-2.9h38.3
				c1.6,0,2.9,1.3,2.9,2.9V453c0,14.1,4.8,14.1,6.4,14.1c2,0,3.4-0.7,4.5-2.1c1.3-1.7,1.9-4,1.9-7c0-4.3-0.6-7.9-1.7-10.8
				c-1.2-2.9-2.9-5.7-5.3-8.3c-2.5-2.8-6.7-6.8-12.5-11.8l-16.4-14.2C610,401,603,387.3,603,372.2c0-16.3,4.3-28.6,12.8-36.8
				c8.5-8.1,20.2-12.2,34.8-12.2h6.8c3.9,0,8.7,0.9,14.7,2.6c6,1.8,11.5,4.7,16.2,8.8c4.8,4.2,8.4,10,10.7,17.3
				c2.3,7.1,3.4,15.9,3.4,26c0,1.6-1.3,2.9-2.9,2.9h-39.2c-1.6,0-2.8-1.2-2.9-2.8l-0.2-10.6c0-1.2-0.6-2.2-1.7-3.3s-2.2-1.5-3.4-1.5
				c-1.9,0-3.4,0.5-4.7,1.6c-1.2,1-1.7,2.3-1.7,4c0,4.1,3.3,8.8,9.8,14l23.4,18.9c3.9,3.2,7.4,6.4,10.3,9.7c3,3.3,5.3,6.7,7.1,10
				c1.7,3.2,3.1,6.1,4.1,8.7c1.1,2.7,1.9,5.8,2.3,8.9c0.4,3.1,0.7,5.4,0.7,7c0.1,1.6,0.1,3.6,0.1,6c0,6.3-0.4,12.1-1.2,17.2
				c-0.8,5.2-2.3,10.4-4.5,15.2c-2.2,5-5.1,9.2-8.8,12.6c-3.6,3.4-8.3,6.1-14,8C669.6,506.7,663.1,507.7,655.8,507.7z M608.7,440.2
				v14.3c0,16.3,3.6,28.5,10.7,36.1c7.1,7.6,19.3,11.4,36.3,11.4c6.7,0,12.6-0.9,17.6-2.6c4.9-1.7,8.9-4,12-6.8
				c3-2.8,5.5-6.4,7.4-10.7c1.9-4.4,3.3-9,4.1-13.8c0.8-4.9,1.2-10.3,1.2-16.3c0-2.4,0-4.3-0.1-5.8c-0.1-1.4-0.3-3.6-0.7-6.5
				c-0.4-2.7-1-5.2-2-7.5c-1-2.4-2.3-5.2-3.9-8.2c-1.5-2.9-3.7-5.9-6.3-8.9c-2.7-3.1-5.9-6.1-9.6-9.1L652,386.9
				c-8-6.5-12-12.5-12-18.5c0-3.3,1.3-6.1,3.7-8.2c2.3-2,5.2-3.1,8.4-3.1c2.7,0,5.2,1,7.4,3.1c2.2,2.1,3.3,4.5,3.4,7.2l0.2,7.8h33.6
				c-0.2-8.3-1.2-15.5-3.1-21.4c-2-6.3-5.1-11.3-9.1-14.8c-4.1-3.6-8.8-6.1-14-7.7c-5.3-1.6-9.7-2.4-13-2.4h-6.8
				c-13.1,0-23.5,3.6-30.8,10.6c-7.3,7-11,18-11,32.6c0,13.4,6.3,25.6,18.8,36.3l16.4,14.2c6,5.2,10.4,9.3,13.1,12.3
				c2.8,3.1,5,6.5,6.4,10c1.4,3.6,2.1,7.9,2.1,12.9c0,4.2-1,7.7-3,10.4c-2.2,2.9-5.3,4.4-9,4.4c-5.5,0-12.1-3.4-12.1-19.8v-12.9
				L608.7,440.2L608.7,440.2z"></path>
		</g>
		<g>
			<g>
				<path class="pra-fill" d="M38.5,239.1c3.6-3.8,8.3-5.9,13.3-5.9c11.3,0,19.2,9.9,19.2,24.3c0,13.7-8.2,23.6-19.5,23.6
					c-5.2,0-8.7-1.7-13-6.4v11h4.3v8.9H23.3v-8.9h4v-42.4h-4v-8.9h15.2L38.5,239.1L38.5,239.1z M41.7,245.9
					c-2.4,2.4-3.1,5.4-3.1,11.2c0,5.8,0.9,9,3.3,11.5c1.9,1.9,4.6,3.1,7,3.1c6.4,0,10.5-5.5,10.5-14.2c0-9.3-4-15-10.5-15
					C46.2,242.6,43.7,243.8,41.7,245.9z"></path>
				<path class="pra-fill" d="M88,241.5c2.9-5.8,6.2-8.2,11.3-8.2c1.5,0,2.9,0.2,5.1,0.6v10.6c-2-0.4-3.6-0.6-5.5-0.6
					c-5.9,0-10.9,4.2-10.9,9.4v17.7h5.4v8.9H72.6v-8.9H77v-27.8h-4.3v-8.9H88V241.5z"></path>
				<path class="pra-fill" d="M150.1,257.1c0,13.6-9.5,24-22.1,24c-13.1,0-22.7-10.2-22.7-24c0-13.7,9.7-24,22.7-24
					C140.3,233.1,150.1,243.8,150.1,257.1z M117,256.9c0,8.6,4.2,14.4,10.6,14.4c6.7,0,10.9-5.5,10.9-14.4c0-8.2-4.6-14-10.9-14
					C121.2,242.9,117,248.6,117,256.9z"></path>
				<path class="pra-fill" d="M167.8,239.1c3.6-3.8,8.3-5.9,13.3-5.9c11.3,0,19.2,9.9,19.2,24.3c0,13.7-8.2,23.6-19.5,23.6
					c-5.2,0-8.7-1.7-13-6.4v11h4.3v8.9h-19.4v-8.9h4v-42.4h-4v-8.9h15.2V239.1z M171,245.9c-2.4,2.4-3.1,5.4-3.1,11.2
					c0,5.8,0.9,9,3.3,11.5c1.9,1.9,4.6,3.1,7,3.1c6.4,0,10.5-5.5,10.5-14.2c0-9.3-4-15-10.5-15C175.6,242.6,173,243.8,171,245.9z"></path>
				<path class="pra-fill" d="M245.3,265c-2,9.9-10.2,16-21.1,16c-12.6,0-21.9-10-21.9-23.9c0-13.8,9.4-24,22-24c7.2,0,13.5,3.4,17.3,9.3
					c4.1,6.4,4.3,12.4,4.5,17h-32.5c1.1,11.8,8.8,12.4,10.9,12.4c4.5,0,7.4-2.1,9.2-6.8L245.3,265L245.3,265z M233.7,251.6
					c-0.8-5.8-4.2-8.9-9.5-8.9c-4.9,0-8.7,3.3-10.1,8.9L233.7,251.6L233.7,251.6z"></path>
				<path class="pra-fill" d="M263,241.5c3-5.8,6.2-8.2,11.3-8.2c1.5,0,2.9,0.2,5,0.6v10.6c-2-0.4-3.6-0.6-5.5-0.6
					c-5.9,0-10.9,4.2-10.9,9.4v17.7h5.4v8.9h-20.8v-8.9h4.4v-27.8h-4.3v-8.9H263L263,241.5L263,241.5z"></path>
				<path class="pra-fill" d="M285.3,219.9h11v14.5h8.8v8.9h-8.8v23.5c0,3.2,1.7,4.8,5.3,4.8h3.5v8.4c-2.6,0.4-4.9,0.6-6.8,0.6
					c-4.6,0-13,0-13-8.9v-28.4h-5.6v-8.9h5.6L285.3,219.9L285.3,219.9z"></path>
				<path class="pra-fill" d="M332.2,234.5h18.6v8.9H347l-15.8,47.5c-1.4,4.1-3.8,5.3-11,5.3c-3.5,0-5.1-0.1-7.1-0.4v-9.2h6.1
					c2.4,0,3.3-0.9,4.4-5l0.3-1.1l-14.2-37h-3.8v-8.9h18.9v8.9h-4l8.2,23l7.2-23.1h-3.9L332.2,234.5L332.2,234.5z"></path>
			</g>
			<g>
				<g>
					<path class="pra-fill" d="M411.4,241.5c3-5.8,6.2-8.2,11.3-8.2c1.5,0,2.9,0.2,5,0.6v10.6c-2-0.4-3.6-0.6-5.5-0.6
						c-5.9,0-10.9,4.2-10.9,9.4v17.7h5.4v8.9H396v-8.9h4.4v-27.8h-4.3v-8.9h15.3L411.4,241.5L411.4,241.5z"></path>
					<path class="pra-fill" d="M471.1,265c-2,9.9-10.2,16-21.1,16c-12.6,0-21.9-10-21.9-23.9c0-13.8,9.4-24,22-24
						c7.2,0,13.5,3.4,17.3,9.3c4.1,6.4,4.3,12.4,4.5,17h-32.5c1.1,11.8,8.8,12.4,10.9,12.4c4.5,0,7.4-2.1,9.2-6.8L471.1,265
						L471.1,265z M459.5,251.6c-0.8-5.8-4.2-8.9-9.5-8.9c-4.9,0-8.7,3.3-10.1,8.9L459.5,251.6L459.5,251.6z"></path>
					<path class="pra-fill" d="M487.7,239.1c3.6-3.8,8.3-5.9,13.3-5.9c11.3,0,19.2,9.9,19.2,24.3c0,13.7-8.3,23.6-19.5,23.6
						c-5.2,0-8.7-1.7-13-6.4v11h4.3v8.9h-19.5v-8.9h4v-42.4h-4v-8.9h15.2V239.1z M490.9,245.9c-2.4,2.4-3.1,5.4-3.1,11.2
						c0,5.8,0.9,9,3.3,11.5c1.9,1.9,4.6,3.1,7,3.1c6.4,0,10.5-5.5,10.5-14.2c0-9.3-4-15-10.5-15C495.5,242.6,493,243.8,490.9,245.9z
						"></path>
					<path class="pra-fill" d="M567.7,257.1c0,13.6-9.5,24-22.1,24c-13,0-22.7-10.2-22.7-24c0-13.7,9.7-24,22.7-24
						C557.8,233.1,567.7,243.8,567.7,257.1z M534.5,256.9c0,8.6,4.2,14.4,10.6,14.4c6.7,0,10.9-5.5,10.9-14.4c0-8.2-4.5-14-10.9-14
						C538.8,242.9,534.5,248.6,534.5,256.9z"></path>
					<path class="pra-fill" d="M584.7,241.5c3-5.8,6.2-8.2,11.3-8.2c1.5,0,2.9,0.2,5,0.6v10.6c-2-0.4-3.6-0.6-5.5-0.6
						c-5.9,0-10.9,4.2-10.9,9.4v17.7h5.4v8.9h-20.8v-8.9h4.4v-27.8h-4.3v-8.9h15.3L584.7,241.5L584.7,241.5z"></path>
					<path class="pra-fill" d="M607,219.9h11v14.5h8.8v8.9H618v23.5c0,3.2,1.7,4.8,5.3,4.8h3.5v8.4c-2.6,0.4-4.9,0.6-6.8,0.6
						c-4.6,0-13,0-13-8.9v-28.4h-5.6v-8.9h5.6V219.9z"></path>
					<path class="pra-fill" d="M670.9,265c-2,9.9-10.2,16-21.1,16c-12.6,0-21.9-10-21.9-23.9c0-13.8,9.3-24,22-24
						c7.2,0,13.5,3.4,17.3,9.3c4.1,6.4,4.3,12.4,4.5,17h-32.5c1.1,11.8,8.8,12.4,10.9,12.4c4.5,0,7.4-2.1,9.2-6.8L670.9,265
						L670.9,265z M659.3,251.6c-0.8-5.8-4.2-8.9-9.5-8.9c-4.9,0-8.7,3.3-10.1,8.9L659.3,251.6L659.3,251.6z"></path>
					<path class="pra-fill" d="M688.6,241.5c3-5.8,6.2-8.2,11.3-8.2c1.5,0,2.9,0.2,5,0.6v10.6c-2-0.4-3.6-0.6-5.5-0.6
						c-5.9,0-10.9,4.2-10.9,9.4v17.7h5.4v8.9h-20.8v-8.9h4.4v-27.8h-4.3v-8.9h15.3L688.6,241.5L688.6,241.5z"></path>
				</g>
			</g>
			<rect x="372" y="187.3" class="pra-fill" width="2.4" height="136.3"></rect>
		</g>
	</g>
	<path class="pra-fill" d="M662.5,156.9c-19.2-0.6-38.5-1.3-57.7-1.7c-19.2-0.4-38.5-1-57.7-1.3l-54.8-1l-30.8-35.2
		c-10.9-12.4-21.7-24.9-32.7-37.3l-32.9-37.1c-11-12.4-21.9-24.8-33-37L357.2,0l-5.6,6.3l-32.9,36.9l-16.4,18.4L286,80.2l-32.6,37.1
		l-30.8,35.5c-17.9,0.2-35.8,0.5-53.7,0.9c-18.8,0.4-37.5,0.7-56.3,1.2c-18.8,0.5-37.5,0.9-56.3,1.5c-18.8,0.6-37.5,1.2-56.3,2
		c18.8,0.8,37.5,1.4,56.3,2c18.8,0.6,37.5,1,56.3,1.5c18.8,0.5,37.5,0.8,56.3,1.2c18.8,0.4,37.5,0.7,56.3,1l2.4,0l1.8-1.9l33.6-36.2
		l33.4-36.4l16.7-18.2l16.6-18.3l27.5-30.4c9.1,10.3,18.3,20.5,27.4,30.7l33.1,36.9c11,12.3,22.2,24.5,33.3,36.7l33.4,36.6l2,2.2
		l2.8-0.1l57.7-1c19.2-0.3,38.5-0.9,57.7-1.3c19.2-0.4,38.5-1.1,57.7-1.7c19.2-0.7,38.5-1.4,57.7-2.4
		C701,158.4,681.7,157.7,662.5,156.9z"></path>
</g>
</svg>